REM DIRINDEX 1\2,1\3
REM DIRNAME cjc133,folder01,folder02
TITLE ""
FILE "DISC1Track35.mp3" MP3
  TRACK 01 AUDIO
    TITLE "0:"
    INDEX 01 00:00:00
  TRACK 02 AUDIO
    TITLE "3:cjc133_1566"
    INDEX 01 00:00:13
  TRACK 03 AUDIO
    TITLE "0:"
    INDEX 01 00:01:42
  TRACK 04 AUDIO
    TITLE "2:cjc133_1567"
    INDEX 01 00:02:20
  TRACK 05 AUDIO
    TITLE "2:cjc133_1568"
    INDEX 01 00:03:74
  TRACK 06 AUDIO
    TITLE "2:cjc133_1569"
    INDEX 01 00:06:18
  TRACK 07 AUDIO
    TITLE "0:"
    INDEX 01 00:07:51
  TRACK 08 AUDIO
    TITLE "2:cjc133_1570"
    INDEX 01 00:08:21
  TRACK 09 AUDIO
    TITLE "2:cjc133_1571"
    INDEX 01 00:09:26
  TRACK 10 AUDIO
    TITLE "2:cjc133_1572"
    INDEX 01 00:12:05
  TRACK 11 AUDIO
    TITLE "0:"
    INDEX 01 00:13:71
  TRACK 12 AUDIO
    TITLE "2:cjc133_1573"
    INDEX 01 00:14:43
  TRACK 13 AUDIO
    TITLE "2:cjc133_1574"
    INDEX 01 00:16:44
  TRACK 14 AUDIO
    TITLE "2:cjc133_1575"
    INDEX 01 00:18:62
  TRACK 15 AUDIO
    TITLE "0:"
    INDEX 01 00:20:14
  TRACK 16 AUDIO
    TITLE "2:cjc133_1576"
    INDEX 01 00:20:63
  TRACK 17 AUDIO
    TITLE "2:cjc133_1577"
    INDEX 01 00:22:68
  TRACK 18 AUDIO
    TITLE "2:cjc133_1578"
    INDEX 01 00:25:21
  TRACK 19 AUDIO
    TITLE "0:"
    INDEX 01 00:26:60
  TRACK 20 AUDIO
    TITLE "2:cjc133_1579"
    INDEX 01 00:27:26
  TRACK 21 AUDIO
    TITLE "2:cjc133_1580"
    INDEX 01 00:30:26
  TRACK 22 AUDIO
    TITLE "2:cjc133_1581"
    INDEX 01 00:33:38
  TRACK 23 AUDIO
    TITLE "0:"
    INDEX 01 00:35:57
  TRACK 24 AUDIO
    TITLE "2:cjc133_1582"
    INDEX 01 00:36:33
  TRACK 25 AUDIO
    TITLE "2:cjc133_1583"
    INDEX 01 00:39:00
  TRACK 26 AUDIO
    TITLE "2:cjc133_1584"
    INDEX 01 00:42:08
  TRACK 27 AUDIO
    TITLE "0:"
    INDEX 01 00:44:32
  TRACK 28 AUDIO
    TITLE "2:cjc133_1585"
    INDEX 01 00:44:73
  TRACK 29 AUDIO
    TITLE "2:cjc133_1586"
    INDEX 01 00:47:48
  TRACK 30 AUDIO
    TITLE "2:cjc133_1587"
    INDEX 01 00:50:42
  TRACK 31 AUDIO
    TITLE "0:"
    INDEX 01 00:52:53
  TRACK 32 AUDIO
    TITLE "2:cjc133_1588"
    INDEX 01 00:53:23
  TRACK 33 AUDIO
    TITLE "2:cjc133_1589"
    INDEX 01 00:54:60
  TRACK 34 AUDIO
    TITLE "2:cjc133_1590"
    INDEX 01 00:57:64
  TRACK 35 AUDIO
    TITLE "0:"
    INDEX 01 01:00:02
  TRACK 36 AUDIO
    TITLE "2:cjc133_1591"
    INDEX 01 01:00:47
  TRACK 37 AUDIO
    TITLE "2:cjc133_1592"
    INDEX 01 01:01:50
  TRACK 38 AUDIO
    TITLE "2:cjc133_1593"
    INDEX 01 01:04:41
  TRACK 39 AUDIO
    TITLE "0:"
    INDEX 01 01:06:45
  TRACK 40 AUDIO
    TITLE "2:cjc133_1594"
    INDEX 01 01:07:23
  TRACK 41 AUDIO
    TITLE "2:cjc133_1595"
    INDEX 01 01:11:29
  TRACK 42 AUDIO
    TITLE "2:cjc133_1596"
    INDEX 01 01:14:16
  TRACK 43 AUDIO
    TITLE "0:"
    INDEX 01 01:16:20
  TRACK 44 AUDIO
    TITLE "2:cjc133_1597"
    INDEX 01 01:16:71
  TRACK 45 AUDIO
    TITLE "2:cjc133_1598"
    INDEX 01 01:18:56
  TRACK 46 AUDIO
    TITLE "2:cjc133_1599"
    INDEX 01 01:21:47
  TRACK 47 AUDIO
    TITLE "0:"
    INDEX 01 01:23:48
  TRACK 48 AUDIO
    TITLE "2:cjc133_1600"
    INDEX 01 01:24:24
  TRACK 49 AUDIO
    TITLE "2:cjc133_1601"
    INDEX 01 01:25:45
  TRACK 50 AUDIO
    TITLE "2:cjc133_1602"
    INDEX 01 01:28:53
  TRACK 51 AUDIO
    TITLE "0:"
    INDEX 01 01:30:69
  TRACK 52 AUDIO
    TITLE "2:cjc133_1603"
    INDEX 01 01:31:43
  TRACK 53 AUDIO
    TITLE "2:cjc133_1604"
    INDEX 01 01:33:09
  TRACK 54 AUDIO
    TITLE "2:cjc133_1605"
    INDEX 01 01:36:50
  TRACK 55 AUDIO
    TITLE "0:"
    INDEX 01 01:39:23
  TRACK 56 AUDIO
    TITLE "2:cjc133_1606"
    INDEX 01 01:39:72
  TRACK 57 AUDIO
    TITLE "2:cjc133_1607"
    INDEX 01 01:42:47
  TRACK 58 AUDIO
    TITLE "2:cjc133_1608"
    INDEX 01 01:45:71
  TRACK 59 AUDIO
    TITLE "0:"
    INDEX 01 01:48:30
  TRACK 60 AUDIO
    TITLE "2:cjc133_1609"
    INDEX 01 01:49:04
  TRACK 61 AUDIO
    TITLE "2:cjc133_1610"
    INDEX 01 01:50:39
  TRACK 62 AUDIO
    TITLE "2:cjc133_1611"
    INDEX 01 01:53:53
  TRACK 63 AUDIO
    TITLE "0:"
    INDEX 01 01:56:00
